<?xml version="1.0" encoding="UTF-8"?>
<svg width="460px" height="89px" viewBox="0 0 460 89" version="1.1" xmlns="http://www.w3.org/2000/svg" xmlns:xlink="http://www.w3.org/1999/xlink">
    <title>centrica_logo_normal</title>
    <g id="Page-1" stroke="none" stroke-width="1" fill="none" fill-rule="evenodd">
        <g id="Artboard" transform="translate(-1500.000000, -994.000000)" fill="#FFFFFF" fill-rule="nonzero">
            <g id="centrica_logo_normal" transform="translate(1500.000000, 994.000000)">
                <path d="M310.290996,85.8297515 C303.549757,81.3965584 300.732522,73.3291781 304.103142,68.1227537 L304.103142,68.1227537 C307.473762,62.9421037 315.548157,62.5554879 322.490627,66.988681 L322.490627,66.988681 C329.231866,71.5765203 331.873024,79.4634801 328.703634,84.6699045 L328.703634,84.6699045 C326.867401,87.5566348 323.622552,89 319.975239,89 L319.975239,89 C316.856158,89 313.410077,87.9690249 310.290996,85.8297515 L310.290996,85.8297515 Z M223.116961,76.9414508 C215.860491,76.7378862 213.373292,76.7378862 213.373292,76.7378862 L213.373292,76.7378862 L209.527106,59.6893429 L199.21933,59.6893429 C199.21933,59.6893429 202.270638,57.7809238 203.988601,54.3457697 L203.988601,54.3457697 C205.321945,51.1396257 205.911692,46.7629847 204.937326,41.6229762 L204.937326,41.6229762 C203.245004,31.9790988 201.142423,22.6660139 201.142423,22.6660139 L201.142423,22.6660139 C197.475727,6.15182802 204.168089,0.85914594 219.860524,0.85914594 L219.860524,0.85914594 C223.886197,0.85914594 229.604192,1.21538416 233.629866,1.97875176 L233.629866,1.97875176 L236.886303,17.551451 C233.270889,16.9662024 230.193941,16.7880833 228.09136,16.7880833 L228.09136,16.7880833 C224.834923,16.7880833 222.91183,18.8746215 223.116961,21.3173978 L223.116961,21.3173978 C223.116961,23.4039359 223.681068,25.6940387 224.065686,27.6024578 L224.065686,27.6024578 L227.911871,45.0581304 L242.809428,45.0581304 L246.245353,59.6893429 L230.578559,59.6893429 L234.604233,77.3231346 C234.604233,77.3231346 231.168308,77.1195699 223.116961,76.9414508 L223.116961,76.9414508 Z M0,27.8319172 C0,15.2577177 5.31661633,4.54747351e-13 31.111109,4.54747351e-13 L31.111109,4.54747351e-13 C46.2978074,4.54747351e-13 60.5178481,9.35397768 63.9520262,25.7617746 L63.9520262,25.7617746 L42.125917,25.7617746 C40.3961088,20.7780979 36.6312321,15.2577177 31.111109,15.2577177 L31.111109,15.2577177 C24.4716982,15.2577177 22.7673283,20.215837 23.3269722,28.4197354 L23.3269722,28.4197354 C23.7085475,32.6111353 26.176068,47.4599359 36.2496568,47.4599359 L36.2496568,47.4599359 C43.4487115,47.4599359 44.0337937,40.0483142 44.0337937,37.1858949 L44.0337937,37.1858949 L65.8344645,37.1858949 C66.012533,53.772593 54.0819442,62.7176537 36.9873692,62.7176537 L36.9873692,62.7176537 C14.2454791,62.7176537 0,44.801975 0,27.8319172 L0,27.8319172 Z M67.5464684,26.4524835 C67.5464684,11.0452511 76.719712,0 98.1410294,0 L98.1410294,0 C120.126066,0 127.556906,15.4072324 129.094321,19.2080232 L129.094321,19.2080232 L107.673003,19.2080232 C106.161212,16.1724923 103.855089,14.080782 99.0891025,14.080782 L99.0891025,14.080782 C94.8868341,14.080782 92.5807113,16.1724923 91.42765,18.2642026 L91.42765,18.2642026 C90.3002123,20.5344737 89.7108698,23.2128833 89.9158585,26.4524835 L89.9158585,26.4524835 L131.400443,26.4524835 C132.143527,29.3094538 132.527881,32.549054 132.527881,36.3498447 L132.527881,36.3498447 C132.527881,53.8487875 119.536723,61.8585077 104.034454,61.8585077 L104.034454,61.8585077 C87.225382,61.8585077 67.5464684,51.3744472 67.5464684,26.4524835 L67.5464684,26.4524835 Z M103.260614,48.2410445 C109.570651,48.2410445 112.623067,44.6068573 111.494443,37.6735495 L111.494443,37.6735495 L91.7691639,37.6735495 C93.3338479,43.6274308 97.3096843,48.2410445 103.260614,48.2410445 L103.260614,48.2410445 Z M388.178439,24.9513309 C388.178439,14.4430374 392.319547,0.85914594 409.214255,0.85914594 L409.214255,0.85914594 C416.785116,0.85914594 424.355978,4.88305342 427.582486,9.29141066 L427.582486,9.29141066 L427.582486,9.08637079 C427.582486,6.80530221 427.760325,4.1141539 428.725737,2.21753509 L428.725737,2.21753509 L450.701559,2.21753509 C449.558309,5.26750318 449.558309,10.4447599 450.879398,16.5446961 L450.879398,16.5446961 C452.022649,21.6963229 460,60.3463387 460,60.3463387 L460,60.3463387 L438.024178,60.3463387 L436.296599,52.8623833 C433.654418,58.24468 427.988975,61.8585077 419.249458,61.8585077 L419.249458,61.8585077 C398.950403,61.8585077 388.178439,41.9696402 388.178439,24.9513309 L388.178439,24.9513309 Z M411.46487,26.3981517 C411.46487,35.5543592 416.646282,46.3938807 424.495353,46.3938807 L424.495353,46.3938807 C430.984944,46.3938807 433.293494,42.0070626 433.293494,36.1154639 L433.293494,36.1154639 C433.293494,23.9241903 427.368215,16.3237728 420.083457,16.3237728 L420.083457,16.3237728 C414.927695,16.3237728 411.46487,19.1803055 411.46487,26.3981517 L411.46487,26.3981517 Z M320.63197,27.6168491 C320.810037,15.211937 326.508174,0.85914594 351.920848,0.85914594 L351.920848,0.85914594 C366.929335,0.85914594 381.174678,9.29141066 384.761451,25.7458604 L384.761451,25.7458604 L362.935551,25.7458604 C361.231198,20.7480135 357.440919,16.1602463 351.742782,16.1602463 L351.742782,16.1602463 C345.510444,16.1602463 343.602585,20.1841539 344.162224,28.4113786 L344.162224,28.4113786 C344.340291,32.7941059 346.833226,46.7624471 357.059347,46.7624471 L357.059347,46.7624471 C364.283771,46.7624471 364.84341,39.8679815 364.665343,37.2024632 L364.665343,37.2024632 L386.465805,37.2024632 C386.66931,53.8363227 374.891464,61.8585077 357.618986,61.8585077 L357.618986,61.8585077 C335.05538,61.8585077 320.63197,44.8401983 320.63197,27.6168491 L320.63197,27.6168491 Z M161.851379,51.2932648 L164.150159,59.4963178 L142.797044,59.4963178 L130.817844,1.71829188 L152.911678,1.71829188 L159.399346,32.3141513 C160.727531,38.4027528 163.026311,43.3194896 170.075904,43.3194896 L170.075904,43.3194896 C173.677327,43.3194896 176.359237,41.4088406 176.359237,37.8168205 L176.359237,37.8168205 C176.359237,35.5240417 175.209847,31.5498917 174.622381,28.1107235 L174.622381,28.1107235 L168.926514,1.71829188 L190.637217,1.71829188 L197.68681,34.4031276 C198.631865,38.58108 199.21933,42.7590325 199.21933,45.4339412 L199.21933,45.4339412 C199.21933,57.4073416 189.666621,60.9993617 182.080647,60.9993617 L182.080647,60.9993617 C172.527936,60.9993617 166.448939,56.4392795 161.851379,51.2932648 L161.851379,51.2932648 Z M270.612181,49.6437264 L270.612181,49.848536 L272.894367,59.7817991 L251.482843,59.7817991 L239.405205,1.71829188 L261.611648,1.71829188 L266.791442,25.9626222 C269.073629,36.6639212 273.663644,40.862517 280.740986,40.862517 L280.740986,40.862517 C284.177087,40.862517 286.279775,40.6577074 289.921017,39.3264453 L289.921017,39.3264453 L294.126394,59.1929716 C292.408343,59.9610074 290.485153,60.1402158 287.843971,60.1402158 L287.843971,60.1402158 C280.740986,60.1402158 274.048282,55.1735843 270.612181,49.6437264 L270.612181,49.6437264 Z M299.284707,59.2810699 L287.286245,1.71829188 L309.437252,1.71829188 L321.486989,59.2810699 L299.284707,59.2810699 Z" id="path7890" transform="translate(230.000000, 44.500000) scale(-1, 1) rotate(-180.000000) translate(-230.000000, -44.500000) "></path>
            </g>
        </g>
    </g>
</svg>